<?xml version="1.0" encoding="UTF-8" standalone="no"?>
<svg
   xmlns:dc="http://purl.org/dc/elements/1.1/"
   xmlns:cc="http://creativecommons.org/ns#"
   xmlns:rdf="http://www.w3.org/1999/02/22-rdf-syntax-ns#"
   xmlns:svg="http://www.w3.org/2000/svg"
   xmlns="http://www.w3.org/2000/svg"
   xmlns:sodipodi="http://sodipodi.sourceforge.net/DTD/sodipodi-0.dtd"
   xmlns:inkscape="http://www.inkscape.org/namespaces/inkscape"
   id="Livello_1"
   data-name="Livello 1"
   viewBox="0 0 71 71"
   version="1.1"
   sodipodi:docname="ico_grid.svg"
   inkscape:version="1.0.2-2 (e86c870879, 2021-01-15)">
  <metadata
     id="metadata2727">
    <rdf:RDF>
      <cc:Work
         rdf:about="">
        <dc:format>image/svg+xml</dc:format>
        <dc:type
           rdf:resource="http://purl.org/dc/dcmitype/StillImage" />
        <dc:title></dc:title>
      </cc:Work>
    </rdf:RDF>
  </metadata>
  <sodipodi:namedview
     pagecolor="#ffffff"
     bordercolor="#666666"
     borderopacity="1"
     objecttolerance="10"
     gridtolerance="10"
     guidetolerance="10"
     inkscape:pageopacity="0"
     inkscape:pageshadow="2"
     inkscape:window-width="1920"
     inkscape:window-height="991"
     id="namedview2725"
     showgrid="false"
     inkscape:zoom="11.15057"
     inkscape:cx="35.5"
     inkscape:cy="35.5"
     inkscape:window-x="-9"
     inkscape:window-y="-9"
     inkscape:window-maximized="1"
     inkscape:current-layer="Livello_1" />
  <defs
     id="defs2706">
    <style
       id="style2699">.cls-1{fill:url(#_10);}.cls-2,.cls-3{fill:none;stroke:#fff;}.cls-2{stroke-miterlimit:10;}.cls-3{stroke-linejoin:round;}</style>
    <linearGradient
       id="_10"
       y1="35.5"
       x2="71"
       y2="35.5"
       gradientUnits="userSpaceOnUse">
      <stop
         offset="0"
         stop-color="#a646db"
         id="stop2701" />
      <stop
         offset="1"
         stop-color="#667eff"
         id="stop2703" />
    </linearGradient>
  </defs>
  <circle
     class="cls-1"
     cx="35.5"
     cy="35.5"
     r="35.5"
     id="circle2708" />
  <rect
     class="cls-2"
     x="32.85366"
     y="23.2439"
     width="15.56098"
     height="24.7561"
     rx="1.41463"
     id="rect2710" />
  <path
     class="cls-2"
     d="M541.77,527.30712v-2.122a1.4146,1.4146,0,0,1,1.41464-1.41463h4.2439a1.41461,1.41461,0,0,1,1.41464,1.41463v2.122"
     transform="translate(-504.67241 -504.06322)"
     id="path2712" />
  <line
     class="cls-2"
     x1="20.12195"
     y1="23.95122"
     x2="20.12195"
     y2="19"
     id="line2714" />
  <line
     class="cls-2"
     x1="24.36585"
     y1="23.95122"
     x2="24.36585"
     y2="19"
     id="line2716" />
  <path
     class="cls-2"
     d="M522.67241,528.01444v1.41463a2.41384,2.41384,0,0,0,.70732,1.38974v2.14685a2.122,2.122,0,0,0,2.12195,2.122H528.331a2.122,2.122,0,0,0,2.12195-2.122v-2.14685a2.41384,2.41384,0,0,0,.70732-1.38974v-1.41463Z"
     transform="translate(-504.67241 -504.06322)"
     id="path2718" />
  <path
     class="cls-2"
     d="M537.52607,543.57541H534.6968a2.12191,2.12191,0,0,0-2.122,2.12195v4.24391a2.12191,2.12191,0,0,1-2.12195,2.12195h-1.41463a2.12191,2.12191,0,0,1-2.12195-2.12195V535.08761"
     transform="translate(-504.67241 -504.06322)"
     id="path2720" />
  <polygon
     class="cls-3"
     points="41.344 34.229 42.573 27.418 35.801 37.602 39.925 37.015 38.696 43.825 45.468 33.642 41.344 34.229"
     id="polygon2722" />
</svg>
