<?xml version="1.0" encoding="UTF-8" standalone="no"?>
<svg
   xmlns:dc="http://purl.org/dc/elements/1.1/"
   xmlns:cc="http://creativecommons.org/ns#"
   xmlns:rdf="http://www.w3.org/1999/02/22-rdf-syntax-ns#"
   xmlns:svg="http://www.w3.org/2000/svg"
   xmlns="http://www.w3.org/2000/svg"
   xmlns:sodipodi="http://sodipodi.sourceforge.net/DTD/sodipodi-0.dtd"
   xmlns:inkscape="http://www.inkscape.org/namespaces/inkscape"
   id="Livello_1"
   data-name="Livello 1"
   viewBox="0 0 71 71"
   version="1.1"
   sodipodi:docname="ico_solar.svg"
   inkscape:version="1.0.2-2 (e86c870879, 2021-01-15)">
  <metadata
     id="metadata2136">
    <rdf:RDF>
      <cc:Work
         rdf:about="">
        <dc:format>image/svg+xml</dc:format>
        <dc:type
           rdf:resource="http://purl.org/dc/dcmitype/StillImage" />
        <dc:title></dc:title>
      </cc:Work>
    </rdf:RDF>
  </metadata>
  <sodipodi:namedview
     pagecolor="#ffffff"
     bordercolor="#666666"
     borderopacity="1"
     objecttolerance="10"
     gridtolerance="10"
     guidetolerance="10"
     inkscape:pageopacity="0"
     inkscape:pageshadow="2"
     inkscape:window-width="1920"
     inkscape:window-height="991"
     id="namedview2134"
     showgrid="false"
     showguides="false"
     inkscape:zoom="11.15057"
     inkscape:cx="35.5"
     inkscape:cy="35.5"
     inkscape:window-x="-9"
     inkscape:window-y="-9"
     inkscape:window-maximized="1"
     inkscape:current-layer="Livello_1" />
  <defs
     id="defs2089">
    <style
       id="style2082">.cls-1{fill:url(#Sfumatura_senza_nome_12);}.cls-2{fill:#fff;}</style>
    <linearGradient
       id="Sfumatura_senza_nome_12"
       y1="35.5"
       x2="71"
       y2="35.5"
       gradientUnits="userSpaceOnUse">
      <stop
         offset="0"
         stop-color="#f7931e"
         id="stop2084" />
      <stop
         offset="1"
         stop-color="#fcee21"
         id="stop2086" />
    </linearGradient>
  </defs>
  <circle
     class="cls-1"
     cx="35.5"
     cy="35.5"
     r="35.5"
     id="circle2091" />
  <path
     class="cls-2"
     d="M552.49806,547.44894H528.20947A2.314,2.314,0,0,1,525.903,544.945l1.45869-17.74059a2.32763,2.32763,0,0,1,2.30648-2.12462h21.3712a2.32763,2.32763,0,0,1,2.30648,2.12462l1.4587,17.74059a2.314,2.314,0,0,1-2.30648,2.50393Zm-22.8299-21.46671a1.41946,1.41946,0,0,0-1.40686,1.29619l-1.45869,17.74066a1.41154,1.41154,0,0,0,1.40686,1.52742h24.28859a1.41156,1.41156,0,0,0,1.40686-1.52742l-1.45869-17.74066a1.41946,1.41946,0,0,0-1.40687-1.29619Z"
     transform="translate(-504.67241 -504.06322)"
     id="path2093" />
  <path
     class="cls-2"
     d="M540.35394,547.44894a.45119.45119,0,0,1-.45121-.45122v-12.8932a.45122.45122,0,1,1,.90243,0v12.8932A.4512.4512,0,0,1,540.35394,547.44894Z"
     transform="translate(-504.67241 -504.06322)"
     id="path2095" />
  <path
     class="cls-2"
     d="M540.35394,530.91112a.45119.45119,0,0,1-.45121-.45122V525.531a.45122.45122,0,0,1,.90243,0v4.92889A.4512.4512,0,0,1,540.35394,530.91112Z"
     transform="translate(-504.67241 -504.06322)"
     id="path2097" />
  <path
     class="cls-2"
     d="M533.06609,547.44894a.45721.45721,0,0,1-.45086-.47908l.30416-4.92954a.45139.45139,0,0,1,.90106.05574l-.30423,4.92953A.45131.45131,0,0,1,533.06609,547.44894Z"
     transform="translate(-504.67241 -504.06322)"
     id="path2099" />
  <path
     class="cls-2"
     d="M533.59448,538.88324a.45726.45726,0,0,1-.45086-.47909l.79559-12.90093a.45139.45139,0,0,1,.90107.05566l-.79566,12.90093A.45135.45135,0,0,1,533.59448,538.88324Z"
     transform="translate(-504.67241 -504.06322)"
     id="path2101" />
  <path
     class="cls-2"
     d="M538.53146,532.73325H527.44839a.45122.45122,0,0,1,0-.90244h11.08307a.45122.45122,0,0,1,0,.90244Z"
     transform="translate(-504.67241 -504.06322)"
     id="path2103" />
  <path
     class="cls-2"
     d="M540.35394,540.69793h-5.10475a.45122.45122,0,0,1,0-.90244h5.10475a.45122.45122,0,0,1,0,.90244Z"
     transform="translate(-504.67241 -504.06322)"
     id="path2105" />
  <path
     class="cls-2"
     d="M531.60457,540.69793H526.742a.45122.45122,0,1,1,0-.90244h4.8626a.45122.45122,0,1,1,0,.90244Z"
     transform="translate(-504.67241 -504.06322)"
     id="path2107" />
  <path
     class="cls-2"
     d="M551.73489,550.54683H528.97264a1.2159,1.2159,0,0,1-1.21439-1.21476v-2.33435a.4512.4512,0,0,1,.45122-.45122h24.28859a.4512.4512,0,0,1,.45122.45122v2.33435A1.2159,1.2159,0,0,1,551.73489,550.54683Zm-23.0742-3.09789v1.88313a.31239.31239,0,0,0,.31195.31232h22.76225a.31239.31239,0,0,0,.312-.31232v-1.88313Z"
     transform="translate(-504.67241 -504.06322)"
     id="path2109" />
  <path
     class="cls-2"
     d="M543.1494,555.0798h-5.59127a.4512.4512,0,0,1-.45122-.45122v-4.533a.45119.45119,0,0,1,.45122-.45121h5.59127a.45119.45119,0,0,1,.45122.45121v4.533A.4512.4512,0,0,1,543.1494,555.0798Zm-5.14-.90244h4.68884v-3.63053h-4.68884Z"
     transform="translate(-504.67241 -504.06322)"
     id="path2111" />
  <path
     class="cls-2"
     d="M537.55813,555.0798h-5.31167a.45122.45122,0,0,1,0-.90244h5.31167a.45122.45122,0,1,1,0,.90244Z"
     transform="translate(-504.67241 -504.06322)"
     id="path2113" />
  <path
     class="cls-2"
     d="M548.46107,555.0798H543.1494a.45122.45122,0,0,1,0-.90244h5.31167a.45122.45122,0,0,1,0,.90244Z"
     transform="translate(-504.67241 -504.06322)"
     id="path2115" />
  <path
     class="cls-2"
     d="M540.35394,534.55573a2.27352,2.27352,0,1,1,2.27335-2.2737A2.27608,2.27608,0,0,1,540.35394,534.55573Zm0-3.64461a1.37109,1.37109,0,1,0,1.37091,1.37091A1.37269,1.37269,0,0,0,540.35394,530.91112Z"
     transform="translate(-504.67241 -504.06322)"
     id="path2117" />
  <path
     class="cls-2"
     d="M533.4267,542.52041a2.27352,2.27352,0,1,1,2.27371-2.2737A2.276,2.276,0,0,1,533.4267,542.52041Zm0-3.64461a1.37109,1.37109,0,1,0,1.37127,1.37091A1.37265,1.37265,0,0,0,533.4267,538.8758Z"
     transform="translate(-504.67241 -504.06322)"
     id="path2119" />
  <path
     class="cls-2"
     d="M547.64144,547.44894a.45131.45131,0,0,1-.45013-.42335l-.30424-4.92953a.4514.4514,0,0,1,.90107-.05574l.30416,4.92954a.45174.45174,0,0,1-.42263.47836Z"
     transform="translate(-504.67241 -504.06322)"
     id="path2121" />
  <path
     class="cls-2"
     d="M547.113,538.88324a.45134.45134,0,0,1-.45013-.42343l-.79566-12.90093a.45139.45139,0,1,1,.90106-.05566l.79559,12.90093a.45177.45177,0,0,1-.42262.47837Z"
     transform="translate(-504.67241 -504.06322)"
     id="path2123" />
  <path
     class="cls-2"
     d="M553.2595,532.73325H542.17607a.45122.45122,0,0,1,0-.90244H553.2595a.45122.45122,0,1,1,0,.90244Z"
     transform="translate(-504.67241 -504.06322)"
     id="path2125" />
  <path
     class="cls-2"
     d="M545.45834,540.69793h-5.1044a.45122.45122,0,0,1,0-.90244h5.1044a.45122.45122,0,0,1,0,.90244Z"
     transform="translate(-504.67241 -504.06322)"
     id="path2127" />
  <path
     class="cls-2"
     d="M553.96556,540.69793h-4.86225a.45122.45122,0,0,1,0-.90244h4.86225a.45122.45122,0,0,1,0,.90244Z"
     transform="translate(-504.67241 -504.06322)"
     id="path2129" />
  <path
     class="cls-2"
     d="M547.28083,542.52041a2.27352,2.27352,0,1,1,2.2737-2.2737A2.276,2.276,0,0,1,547.28083,542.52041Zm0-3.64461a1.37109,1.37109,0,1,0,1.37127,1.37091A1.37278,1.37278,0,0,0,547.28083,538.8758Z"
     transform="translate(-504.67241 -504.06322)"
     id="path2131" />
</svg>
